/* XPM */
static char * myagent_im_xpm[] = {
"32 32 180 2",
"  	c None",
". 	c #DEA037",
"+ 	c #E0A237",
"@ 	c #EFAC3B",
"# 	c #EAA93A",
"$ 	c #E2A338",
"% 	c #DA9D36",
"& 	c #FDB73E",
"* 	c #FFB83F",
"= 	c #FAB43E",
"- 	c #E1A237",
"; 	c #E6A639",
"> 	c #FCB63E",
", 	c #FBB53E",
"' 	c #E9A839",
") 	c #DD9F36",
"! 	c #E3A438",
"~ 	c #F5B13C",
"{ 	c #F2AF3C",
"] 	c #E8A739",
"^ 	c #F9B43D",
"/ 	c #F4B03C",
"( 	c #F7B23D",
"_ 	c #ECAA3A",
": 	c #EDAB3A",
"< 	c #E9A639",
"[ 	c #FEB53E",
"} 	c #F3AD3B",
"| 	c #DB9C35",
"1 	c #F1AC3B",
"2 	c #F0AB3B",
"3 	c #E3A237",
"4 	c #FDB13E",
"5 	c #FCB03E",
"6 	c #DC9A36",
"7 	c #EEA73A",
"8 	c #F9AE3D",
"9 	c #F5AB3C",
"0 	c #E9A03A",
"a 	c #FBAC3E",
"b 	c #DE9837",
"c 	c #F1A53C",
"d 	c #F3A73C",
"e 	c #D99435",
"f 	c #C88931",
"g 	c #CD8C32",
"h 	c #F9A63D",
"i 	c #FAA73D",
"j 	c #E69A38",
"k 	c #F8A63D",
"l 	c #E19637",
"m 	c #CC8832",
"n 	c #D48D34",
"o 	c #E79A38",
"p 	c #F5A43C",
"q 	c #E59938",
"r 	c #F0A03B",
"s 	c #EA9C39",
"t 	c #F8A13D",
"u 	c #EB993A",
"v 	c #E99739",
"w 	c #F49E3C",
"x 	c #E49438",
"y 	c #C98331",
"z 	c #F7A03D",
"A 	c #DC8A36",
"B 	c #F79B3D",
"C 	c #D98835",
"D 	c #DF8C37",
"E 	c #F2983C",
"F 	c #E38E38",
"G 	c #E58B38",
"H 	c #F5953C",
"I 	c #D07E33",
"J 	c #EB8F3A",
"K 	c #CC7C32",
"L 	c #E98D39",
"M 	c #E18937",
"N 	c #EA8F39",
"O 	c #C87931",
"P 	c #E78839",
"Q 	c #F38F3C",
"R 	c #C07230",
"S 	c #EF8D3B",
"T 	c #D47C34",
"U 	c #DF8337",
"V 	c #CD7832",
"W 	c #E58138",
"X 	c #F1883B",
"Y 	c #C26E2F",
"Z 	c #EC853A",
"` 	c #D27633",
" .	c #DD7D36",
"..	c #CA7231",
"+.	c #DE7837",
"@.	c #EF813B",
"#.	c #C86C31",
"$.	c #E37A38",
"%.	c #C76B31",
"&.	c #E27A38",
"*.	c #DA7636",
"=.	c #DD7737",
"-.	c #D26C33",
";.	c #ED7A3A",
">.	c #D56D34",
",.	c #D16C33",
"'.	c #E87839",
").	c #DF7337",
"!.	c #E77739",
"~.	c #EB733A",
"{.	c #E46F38",
"].	c #DC6C36",
"^.	c #E77139",
"/.	c #C25F30",
"(.	c #CA6332",
"_.	c #E67139",
":.	c #E96C39",
"<.	c #D66334",
"[.	c #E66B38",
"}.	c #CF6033",
"|.	c #BC572E",
"1.	c #C35B30",
"2.	c #D76334",
"3.	c #E56A38",
"4.	c #CC5E32",
"5.	c #D85E35",
"6.	c #E76539",
"7.	c #D15B34",
"8.	c #DF6137",
"9.	c #A44828",
"0.	c #E56439",
"a.	c #E46438",
"b.	c #E55E38",
"c.	c #D55734",
"d.	c #BF4F2F",
"e.	c #E25D37",
"f.	c #E15D37",
"g.	c #D55134",
"h.	c #E35738",
"i.	c #DB5436",
"j.	c #CC4E32",
"k.	c #D75235",
"l.	c #E25738",
"m.	c #DC5436",
"n.	c #CA4D32",
"o.	c #DD5036",
"p.	c #E15137",
"q.	c #D54C34",
"r.	c #DE4B37",
"s.	c #DF4B37",
"t.	c #D84935",
"u.	c #BE402F",
"v.	c #D24734",
"w.	c #DC4536",
"x.	c #DE4636",
"y.	c #CA4031",
"z.	c #DB4535",
"A.	c #D94035",
"B.	c #DC4136",
"C.	c #D43F34",
"D.	c #C33A30",
"E.	c #C23930",
"F.	c #AD332B",
"G.	c #BA372E",
"H.	c #C93B31",
"I.	c #D73F35",
"J.	c #C33630",
"K.	c #DB3C36",
"L.	c #D93C36",
"M.	c #B4312D",
"N.	c #C43230",
"O.	c #D83835",
"P.	c #DA3835",
"Q.	c #D63734",
"R.	c #BD312E",
"S.	c #AE2B2B",
"T.	c #C02F2F",
"U.	c #BF2F2F",
"V.	c #BE2F2F",
"W.	c #AD2A2A",
"                                                                ",
"                          . + @ # $ %                           ",
"                    # & * * * * * * * * = -                     ",
"                ; * * * * * * * * * * * * * > %                 ",
"              , * * * * > ' $ % ) ! ~ * * * * * {               ",
"            & * * * ]                   + & * * * ^             ",
"          & * * ~                           / * * * (           ",
"        = * * _                               @ * * * :         ",
"      < [ [ }             | 1 1 2 3             2 [ [ [         ",
"      4 4 5           6 5 4 4 4 4 4 4 7           8 4 4 9       ",
"    0 a a b         c a a a a a a a a a d   e     f a a a g     ",
"    h i i         j i i i k l m n o i i i p i q     r i i s     ",
"    t t u         t t t v             w t t t x     y t t z     ",
"  A B B C       D B B E                 B B B F       B B B     ",
"  G H H I       J H H K                 L H H M       N H H O   ",
"  P Q Q R       S Q Q                   T Q Q U       U Q Q V   ",
"  W X X Y       Z X X                   ` X X  .       .X X ..  ",
"  +.@.@.#.      $.@.@.%.                &.@.@.*.      =.@.@.    ",
"  -.;.;.>.      ,.;.;.'.                ;.;.;.).      !.;.;.    ",
"    ~.~.{.        ~.~.~.].            ^.~.~.~.~./.  (.~.~._.    ",
"    :.:.:.        <.:.:.:.[.}.|.1.2.:.:.:.3.:.:.:.:.:.:.:.4.    ",
"    5.6.6.7.        8.6.6.6.6.6.6.6.6.6.6.9.0.6.6.6.6.6.a.      ",
"      b.b.b.          c.b.b.b.b.b.b.b.b.d.    e.b.b.b.f.        ",
"      g.h.h.i.            j.k.l.m.k.n.                          ",
"        o.p.p.q.                                                ",
"          r.s.s.t.                          u.v.                ",
"            w.x.x.x.y.                    z.x.x.w.              ",
"              A.B.B.B.B.C.D.E.F.G.E.H.I.B.B.B.B.E.              ",
"                J.K.K.K.K.K.K.K.K.K.K.K.K.K.L.M.                ",
"                    N.O.P.P.P.P.P.P.P.P.Q.R.                    ",
"                          S.T.U.U.V.W.                          ",
"                                                                "};
